<svg xmlns="http://www.w3.org/2000/svg" width="900" height="520" viewBox="0 0 900 520">
  <rect width="900" height="520" fill="#f8fbff"/>
  <text x="450" y="56" text-anchor="middle" font-size="28" font-family="Trebuchet MS, Arial" fill="#2e4d62" font-weight="700">Cuadrícula de coordenadas</text>

  <g transform="translate(250,100)">
    <rect x="0" y="0" width="420" height="320" fill="#ffffff" stroke="#8faec1" stroke-width="3"/>
    <line x1="140" y1="0" x2="140" y2="320" stroke="#8faec1" stroke-width="3"/>
    <line x1="280" y1="0" x2="280" y2="320" stroke="#8faec1" stroke-width="3"/>

    <line x1="0" y1="106.7" x2="420" y2="106.7" stroke="#8faec1" stroke-width="3"/>
    <line x1="0" y1="213.4" x2="420" y2="213.4" stroke="#8faec1" stroke-width="3"/>

    <text x="70" y="-16" text-anchor="middle" font-size="26" font-family="Trebuchet MS, Arial" fill="#35566a" font-weight="700">A</text>
    <text x="210" y="-16" text-anchor="middle" font-size="26" font-family="Trebuchet MS, Arial" fill="#35566a" font-weight="700">B</text>
    <text x="350" y="-16" text-anchor="middle" font-size="26" font-family="Trebuchet MS, Arial" fill="#35566a" font-weight="700">C</text>

    <text x="-24" y="56" text-anchor="middle" font-size="24" font-family="Trebuchet MS, Arial" fill="#35566a" font-weight="700">3</text>
    <text x="-24" y="163" text-anchor="middle" font-size="24" font-family="Trebuchet MS, Arial" fill="#35566a" font-weight="700">2</text>
    <text x="-24" y="270" text-anchor="middle" font-size="24" font-family="Trebuchet MS, Arial" fill="#35566a" font-weight="700">1</text>

    <polygon points="210,28 224,58 256,61 232,82 239,112 210,96 181,112 188,82 164,61 196,58"
      fill="#f3b329" stroke="#b57a00" stroke-width="3"/>
  </g>

  <text x="450" y="470" text-anchor="middle" font-size="20" font-family="Trebuchet MS, Arial" fill="#4e6b7d">La estrella está en columna B y fila 3</text>
</svg>
